ply
format ascii 1.0
element vertex 314
property float x
property float y
property float z
element face 624
property list uchar int vertex_index
end_header
-238.473007 -497.224487 0.000000
-231.093002 -595.009460 0.000000
-226.753006 -536.671997 0.000000
-217.389008 -579.776794 0.000000
-209.875000 -560.876099 0.000000
-208.082001 -417.951965 0.000000
-188.656998 -290.584961 0.000000
-177.500000 -308.843964 0.000000
-175.742004 -340.399963 0.000000
-168.626007 -497.224487 -168.626007
-168.626007 -497.224487 168.626007
-163.406998 -595.009460 -163.406998
-163.406998 -595.009460 163.406998
-163.339005 116.083008 0.000000
-160.339005 -536.671997 -160.339005
-160.339005 -536.671997 160.339005
-154.524994 -291.506958 0.000000
-153.716995 -579.776794 -153.716995
-153.716995 -579.776794 153.716995
-153.156998 -288.313965 0.000000
-150.597000 142.463013 0.000000
-148.404007 -560.876099 -148.404007
-148.404007 -560.876099 148.404007
-147.136002 -417.951965 -147.136002
-147.136002 -417.951965 147.136002
-133.401001 -290.584961 -133.401001
-133.401001 -290.584961 133.401001
-125.512001 -308.843964 -125.512001
-125.512001 -308.843964 125.512001
-125.004997 417.893005 0.000000
-124.268997 -340.399963 -124.268997
-124.268997 -340.399963 124.268997
-115.497002 116.083008 -115.497002
-115.497002 116.083008 115.497002
-110.646004 83.975037 0.000000
-109.265999 -291.506958 -109.265999
-109.265999 -291.506958 109.265999
-108.299004 -288.313965 -108.299004
-108.299004 -288.313965 108.299004
-106.487999 142.463013 -106.487999
-106.487999 142.463013 106.487999
-105.632004 -593.164429 0.000000
-102.611000 334.451050 0.000000
-100.129997 169.071045 0.000000
-99.625198 437.572998 0.000000
-99.060303 169.299011 0.000000
-98.749100 191.677002 0.000000
-88.392197 417.893005 -88.392197
-88.392197 417.893005 88.392197
-84.899200 -117.768982 0.000000
-78.878899 534.123047 0.000000
-78.238800 83.975037 -78.238800
-78.238800 83.975037 78.238800
-77.956596 570.103027 0.000000
-77.034401 193.729004 0.000000
-76.790398 193.700012 0.000000
-76.034599 209.227051 0.000000
-75.206902 468.733032 0.000000
-75.189796 222.326050 0.000000
-75.189796 250.923035 0.000000
-74.693398 -593.164429 -74.693398
-74.693398 -593.164429 74.693398
-73.101402 229.622009 0.000000
-72.556999 334.451050 -72.556999
-72.556999 334.451050 72.556999
-70.803101 169.071045 -70.803101
-70.803101 169.071045 70.803101
-70.446297 437.572998 -70.446297
-70.446297 437.572998 70.446297
-70.046204 169.299011 -70.046204
-70.046204 169.299011 70.046204
-69.826103 191.677002 -69.826103
-69.826103 191.677002 69.826103
-65.209702 445.822998 0.000000
-65.041603 445.572998 0.000000
-60.997398 16.955017 0.000000
-60.033001 -117.768982 -60.033001
-60.033001 -117.768982 60.033001
-55.775902 534.123047 -55.775902
-55.775902 534.123047 55.775902
-55.123798 570.103027 -55.123798
-55.123798 570.103027 55.123798
-54.471298 193.729004 -54.471298
-54.471298 193.729004 54.471298
-54.299000 193.700012 -54.299000
-54.299000 193.700012 54.299000
-53.764599 209.227051 -53.764599
-53.764599 209.227051 53.764599
-53.179600 468.733032 -53.179600
-53.179600 468.733032 53.179600
-53.167198 222.326050 -53.167198
-53.167198 222.326050 53.167198
-53.167198 250.923035 -53.167198
-53.167198 250.923035 53.167198
-51.690498 229.622009 -51.690498
-51.690498 229.622009 51.690498
-51.204899 472.322998 0.000000
-50.910702 472.312988 0.000000
-46.110199 445.822998 -46.110199
-46.110199 445.822998 46.110199
-45.991402 445.572998 -45.991402
-45.991402 445.572998 45.991402
-43.131599 16.955017 -43.131599
-43.131599 16.955017 43.131599
-42.901699 595.013062 0.000000
-36.207401 472.322998 -36.207401
-36.207401 472.322998 36.207401
-35.999401 472.312988 -35.999401
-35.999401 472.312988 35.999401
-30.336100 595.013062 -30.336100
-30.336100 595.013062 30.336100
-27.218800 496.302979 0.000000
-26.296600 571.033081 0.000000
-19.246599 496.302979 -19.246599
-19.246599 496.302979 19.246599
-18.594500 571.033081 -18.594500
-18.594500 571.033081 18.594500
0.000000 -497.224487 -238.473007
0.000000 -595.009460 -231.093002
0.000000 -536.671997 -226.753006
0.000000 -579.776794 -217.389008
0.000000 -560.876099 -209.875000
0.000000 -417.951965 -208.082001
0.000000 -290.584961 -188.656998
0.000000 -308.843964 -177.500000
0.000000 -340.399963 -175.742004
0.000000 116.083008 -163.339005
0.000000 -291.506958 -154.524994
0.000000 -288.313965 -153.156998
0.000000 142.463013 -150.597000
0.000000 417.893005 -125.004997
0.000000 83.975037 -110.646004
0.000000 -593.164429 -105.632004
0.000000 334.451050 -102.611000
0.000000 169.071045 -100.129997
0.000000 437.572998 -99.625198
0.000000 169.299011 -99.060303
0.000000 191.677002 -98.749100
0.000000 -117.768982 -84.899200
0.000000 534.123047 -78.878899
0.000000 570.103027 -77.956596
0.000000 193.729004 -77.034401
0.000000 193.700012 -76.790398
0.000000 209.227051 -76.034599
0.000000 468.733032 -75.206902
0.000000 222.326050 -75.189796
0.000000 250.923035 -75.189796
0.000000 229.622009 -73.101402
0.000000 445.822998 -65.209702
0.000000 445.572998 -65.041603
0.000000 16.955017 -60.997398
0.000000 472.322998 -51.204899
0.000000 472.312988 -50.910702
0.000000 595.013062 -42.901699
0.000000 496.302979 -27.218800
0.000000 571.033081 -26.296600
0.000000 -595.931946 0.000000
0.000000 595.932983 0.000000
0.000000 571.033081 26.296600
0.000000 496.302979 27.218800
0.000000 595.013062 42.901699
0.000000 472.312988 50.910702
0.000000 472.322998 51.204899
0.000000 16.955017 60.997398
0.000000 445.572998 65.041603
0.000000 445.822998 65.209702
0.000000 229.622009 73.101402
0.000000 222.326050 75.189796
0.000000 250.923035 75.189796
0.000000 468.733032 75.206902
0.000000 209.227051 76.034599
0.000000 193.700012 76.790398
0.000000 193.729004 77.034401
0.000000 570.103027 77.956596
0.000000 534.123047 78.878899
0.000000 -117.768982 84.899200
0.000000 191.677002 98.749100
0.000000 169.299011 99.060303
0.000000 437.572998 99.625198
0.000000 169.071045 100.129997
0.000000 334.451050 102.611000
0.000000 -593.164429 105.632004
0.000000 83.975037 110.646004
0.000000 417.893005 125.004997
0.000000 142.463013 150.597000
0.000000 -288.313965 153.156998
0.000000 -291.506958 154.524994
0.000000 116.083008 163.339005
0.000000 -340.399963 175.742004
0.000000 -308.843964 177.500000
0.000000 -290.584961 188.656998
0.000000 -417.951965 208.082001
0.000000 -560.876099 209.875000
0.000000 -579.776794 217.389008
0.000000 -536.671997 226.753006
0.000000 -595.009460 231.093002
0.000000 -497.224487 238.473007
18.594500 571.033081 -18.594500
18.594500 571.033081 18.594500
19.246599 496.302979 -19.246599
19.246599 496.302979 19.246599
26.296600 571.033081 0.000000
27.218800 496.302979 0.000000
30.336100 595.013062 -30.336100
30.336100 595.013062 30.336100
35.999401 472.312988 -35.999401
35.999401 472.312988 35.999401
36.207401 472.322998 -36.207401
36.207401 472.322998 36.207401
42.901699 595.013062 0.000000
43.131599 16.955017 -43.131599
43.131599 16.955017 43.131599
45.991402 445.572998 -45.991402
45.991402 445.572998 45.991402
46.110199 445.822998 -46.110199
46.110199 445.822998 46.110199
50.910702 472.312988 0.000000
51.204899 472.322998 0.000000
51.690498 229.622009 -51.690498
51.690498 229.622009 51.690498
53.167198 222.326050 -53.167198
53.167198 222.326050 53.167198
53.167198 250.923035 -53.167198
53.167198 250.923035 53.167198
53.179600 468.733032 -53.179600
53.179600 468.733032 53.179600
53.764599 209.227051 -53.764599
53.764599 209.227051 53.764599
54.299000 193.700012 -54.299000
54.299000 193.700012 54.299000
54.471298 193.729004 -54.471298
54.471298 193.729004 54.471298
55.123798 570.103027 -55.123798
55.123798 570.103027 55.123798
55.775902 534.123047 -55.775902
55.775902 534.123047 55.775902
60.033001 -117.768982 -60.033001
60.033001 -117.768982 60.033001
60.997398 16.955017 0.000000
65.041603 445.572998 0.000000
65.209702 445.822998 0.000000
69.826103 191.677002 -69.826103
69.826103 191.677002 69.826103
70.046204 169.299011 -70.046204
70.046204 169.299011 70.046204
70.446297 437.572998 -70.446297
70.446297 437.572998 70.446297
70.803101 169.071045 -70.803101
70.803101 169.071045 70.803101
72.556999 334.451050 -72.556999
72.556999 334.451050 72.556999
73.101402 229.622009 0.000000
74.693398 -593.164429 -74.693398
74.693398 -593.164429 74.693398
75.189796 222.326050 0.000000
75.189796 250.923035 0.000000
75.206902 468.733032 0.000000
76.034599 209.227051 0.000000
76.790398 193.700012 0.000000
77.034401 193.729004 0.000000
77.956596 570.103027 0.000000
78.238800 83.975037 -78.238800
78.238800 83.975037 78.238800
78.878899 534.123047 0.000000
84.899200 -117.768982 0.000000
88.392197 417.893005 -88.392197
88.392197 417.893005 88.392197
98.749100 191.677002 0.000000
99.060303 169.299011 0.000000
99.625198 437.572998 0.000000
100.129997 169.071045 0.000000
102.611000 334.451050 0.000000
105.632004 -593.164429 0.000000
106.487999 142.463013 -106.487999
106.487999 142.463013 106.487999
108.299004 -288.313965 -108.299004
108.299004 -288.313965 108.299004
109.265999 -291.506958 -109.265999
109.265999 -291.506958 109.265999
110.646004 83.975037 0.000000
115.497002 116.083008 -115.497002
115.497002 116.083008 115.497002
124.268997 -340.399963 -124.268997
124.268997 -340.399963 124.268997
125.004997 417.893005 0.000000
125.512001 -308.843964 -125.512001
125.512001 -308.843964 125.512001
133.401001 -290.584961 -133.401001
133.401001 -290.584961 133.401001
147.136002 -417.951965 -147.136002
147.136002 -417.951965 147.136002
148.404007 -560.876099 -148.404007
148.404007 -560.876099 148.404007
150.597000 142.463013 0.000000
153.156998 -288.313965 0.000000
153.716995 -579.776794 -153.716995
153.716995 -579.776794 153.716995
154.524994 -291.506958 0.000000
160.339005 -536.671997 -160.339005
160.339005 -536.671997 160.339005
163.339005 116.083008 0.000000
163.406998 -595.009460 -163.406998
163.406998 -595.009460 163.406998
168.626007 -497.224487 -168.626007
168.626007 -497.224487 168.626007
175.742004 -340.399963 0.000000
177.500000 -308.843964 0.000000
188.656998 -290.584961 0.000000
208.082001 -417.951965 0.000000
209.875000 -560.876099 0.000000
217.389008 -579.776794 0.000000
226.753006 -536.671997 0.000000
231.093002 -595.009460 0.000000
238.473007 -497.224487 0.000000
3 0 2 15
3 0 15 10
3 0 10 5
3 0 5 23
3 0 23 9
3 0 9 2
3 1 12 3
3 1 3 17
3 1 17 11
3 1 11 41
3 1 41 61
3 1 61 12
3 2 4 22
3 2 22 15
3 2 9 14
3 2 14 4
3 3 12 18
3 3 18 4
3 3 4 21
3 3 21 17
3 4 18 22
3 4 14 21
3 5 10 24
3 5 24 8
3 5 8 30
3 5 30 23
3 6 7 28
3 6 28 26
3 6 26 16
3 6 16 35
3 6 35 25
3 6 25 7
3 7 8 31
3 7 31 28
3 7 25 27
3 7 27 8
3 8 24 31
3 8 27 30
3 9 23 122
3 9 122 117
3 9 117 14
3 10 15 194
3 10 194 196
3 10 196 24
3 11 17 120
3 11 120 118
3 11 118 60
3 11 60 41
3 12 195 18
3 12 61 181
3 12 181 195
3 13 34 52
3 13 52 33
3 13 33 20
3 13 20 39
3 13 39 32
3 13 32 34
3 14 117 119
3 14 119 21
3 15 22 192
3 15 192 194
3 16 36 19
3 16 19 37
3 16 37 35
3 16 26 36
3 17 21 121
3 17 121 120
3 18 195 193
3 18 193 22
3 19 36 38
3 19 38 49
3 19 49 76
3 19 76 37
3 20 33 40
3 20 40 45
3 20 45 69
3 20 69 39
3 21 119 121
3 22 193 192
3 23 30 125
3 23 125 122
3 24 196 191
3 24 191 31
3 25 35 127
3 25 127 123
3 25 123 27
3 26 28 189
3 26 189 190
3 26 190 36
3 27 123 124
3 27 124 30
3 28 31 188
3 28 188 189
3 29 42 64
3 29 64 48
3 29 48 44
3 29 44 67
3 29 67 47
3 29 47 42
3 30 124 125
3 31 191 188
3 32 51 34
3 32 39 129
3 32 129 126
3 32 126 51
3 33 52 182
3 33 182 187
3 33 187 40
3 34 75 103
3 34 103 52
3 34 51 75
3 35 37 128
3 35 128 127
3 36 186 38
3 36 190 186
3 37 76 138
3 37 138 128
3 38 186 185
3 38 185 77
3 38 77 49
3 39 69 136
3 39 136 129
3 40 187 184
3 40 184 70
3 40 70 45
3 41 156 61
3 41 60 156
3 42 59 93
3 42 93 64
3 42 47 63
3 42 63 59
3 43 66 46
3 43 46 71
3 43 71 65
3 43 65 45
3 43 45 70
3 43 70 66
3 44 48 68
3 44 68 74
3 44 74 100
3 44 100 67
3 45 65 69
3 46 66 72
3 46 72 55
3 46 55 84
3 46 84 71
3 47 67 135
3 47 135 130
3 47 130 63
3 48 64 180
3 48 180 183
3 48 183 68
3 49 77 75
3 49 75 102
3 49 102 76
3 50 79 53
3 50 53 80
3 50 80 78
3 50 78 111
3 50 111 114
3 50 114 79
3 51 102 75
3 51 126 131
3 51 131 102
3 52 103 163
3 52 163 182
3 53 79 81
3 53 81 112
3 53 112 115
3 53 115 80
3 54 83 56
3 54 56 86
3 54 86 82
3 54 82 55
3 54 55 85
3 54 85 83
3 55 72 85
3 55 82 84
3 56 83 87
3 56 87 58
3 56 58 90
3 56 90 86
3 57 73 99
3 57 99 89
3 57 89 97
3 57 97 107
3 57 107 88
3 57 88 73
3 58 87 91
3 58 91 62
3 58 62 94
3 58 94 90
3 59 62 95
3 59 95 93
3 59 63 92
3 59 92 62
3 60 118 132
3 60 132 156
3 61 156 181
3 62 91 95
3 62 92 94
3 63 130 133
3 63 133 92
3 64 93 168
3 64 168 180
3 65 71 137
3 65 137 134
3 65 134 69
3 66 179 72
3 66 70 177
3 66 177 179
3 67 100 149
3 67 149 135
3 68 183 178
3 68 178 101
3 68 101 74
3 69 134 136
3 70 184 177
3 71 84 142
3 71 142 137
3 72 179 176
3 72 176 85
3 73 74 101
3 73 101 99
3 73 88 98
3 73 98 74
3 74 98 100
3 75 77 103
3 76 102 150
3 76 150 138
3 77 185 175
3 77 175 103
3 78 80 140
3 78 140 139
3 78 139 113
3 78 113 111
3 79 174 81
3 79 114 159
3 79 159 174
3 80 115 155
3 80 155 140
3 81 174 173
3 81 173 116
3 81 116 112
3 82 86 143
3 82 143 141
3 82 141 84
3 83 172 87
3 83 85 171
3 83 171 172
3 84 141 142
3 85 176 171
3 86 90 145
3 86 145 143
3 87 172 170
3 87 170 91
3 88 107 152
3 88 152 144
3 88 144 98
3 89 99 165
3 89 165 169
3 89 169 108
3 89 108 97
3 90 94 147
3 90 147 145
3 91 170 167
3 91 167 95
3 92 133 146
3 92 146 94
3 93 95 166
3 93 166 168
3 94 146 147
3 95 167 166
3 96 106 111
3 96 111 113
3 96 113 105
3 96 105 97
3 96 97 108
3 96 108 106
3 97 105 107
3 98 144 148
3 98 148 100
3 99 101 164
3 99 164 165
3 100 148 149
3 101 178 164
3 102 131 150
3 103 175 163
3 104 116 110
3 104 110 157
3 104 157 109
3 104 109 112
3 104 112 116
3 105 113 154
3 105 154 151
3 105 151 107
3 106 162 114
3 106 114 111
3 106 108 161
3 106 161 162
3 107 151 152
3 108 169 161
3 109 157 153
3 109 153 115
3 109 115 112
3 110 158 160
3 110 160 157
3 110 116 158
3 113 139 154
3 114 162 159
3 115 153 155
3 116 173 158
3 117 122 289
3 117 289 303
3 117 303 119
3 118 120 295
3 118 295 301
3 118 301 132
3 119 303 298
3 119 298 121
3 120 121 291
3 120 291 295
3 121 298 291
3 122 125 282
3 122 282 289
3 123 127 277
3 123 277 287
3 123 287 124
3 124 287 285
3 124 285 125
3 125 285 282
3 126 129 273
3 126 273 280
3 126 280 131
3 127 128 275
3 127 275 277
3 128 138 236
3 128 236 275
3 129 136 243
3 129 243 273
3 130 135 245
3 130 245 265
3 130 265 133
3 131 280 261
3 131 261 150
3 132 301 252
3 132 252 156
3 133 265 249
3 133 249 146
3 134 137 241
3 134 241 247
3 134 247 136
3 135 149 212
3 135 212 245
3 136 247 243
3 137 142 228
3 137 228 241
3 138 150 210
3 138 210 236
3 139 140 232
3 139 232 234
3 139 234 154
3 140 155 197
3 140 197 232
3 141 143 226
3 141 226 230
3 141 230 142
3 142 230 228
3 143 145 220
3 143 220 226
3 144 152 205
3 144 205 224
3 144 224 148
3 145 147 218
3 145 218 220
3 146 249 222
3 146 222 147
3 147 222 218
3 148 224 214
3 148 214 149
3 149 214 212
3 150 261 210
3 151 154 199
3 151 199 207
3 151 207 152
3 152 207 205
3 153 157 203
3 153 203 155
3 154 234 199
3 155 203 197
3 156 272 253
3 156 253 181
3 156 252 272
3 157 204 209
3 157 209 203
3 157 160 204
3 158 198 160
3 158 173 233
3 158 233 198
3 159 208 200
3 159 200 174
3 159 162 208
3 160 198 204
3 161 225 206
3 161 206 162
3 161 169 225
3 162 206 208
3 163 175 237
3 163 237 211
3 163 211 182
3 164 246 213
3 164 213 165
3 164 178 246
3 165 213 215
3 165 215 169
3 166 167 221
3 166 221 219
3 166 219 168
3 167 170 227
3 167 227 221
3 168 219 223
3 168 223 180
3 169 215 225
3 170 172 231
3 170 231 227
3 171 242 229
3 171 229 172
3 171 176 242
3 172 229 231
3 173 235 233
3 173 174 235
3 174 200 235
3 175 185 276
3 175 276 237
3 176 248 242
3 176 179 248
3 177 274 244
3 177 244 179
3 177 184 274
3 178 266 246
3 178 183 266
3 179 244 248
3 180 223 250
3 180 250 183
3 181 253 195
3 182 211 262
3 182 262 187
3 183 250 266
3 184 281 274
3 184 187 281
3 185 186 278
3 185 278 276
3 186 190 288
3 186 288 278
3 187 262 281
3 188 191 290
3 188 290 283
3 188 283 189
3 189 283 286
3 189 286 190
3 190 286 288
3 191 196 304
3 191 304 290
3 192 193 296
3 192 296 292
3 192 292 194
3 193 195 302
3 193 302 296
3 194 292 299
3 194 299 196
3 195 253 302
3 196 299 304
3 197 203 209
3 197 209 201
3 197 201 232
3 198 201 204
3 198 233 260
3 198 260 201
3 199 234 263
3 199 263 202
3 199 202 207
3 200 217 202
3 200 202 235
3 200 208 217
3 201 209 204
3 201 260 232
3 202 217 207
3 202 263 235
3 205 207 217
3 205 217 216
3 205 216 224
3 206 256 216
3 206 216 208
3 206 225 256
3 208 216 217
3 210 261 279
3 210 279 238
3 210 238 236
3 211 237 264
3 211 264 238
3 211 238 262
3 212 214 240
3 212 240 239
3 212 239 245
3 213 269 239
3 213 239 215
3 213 246 269
3 214 224 256
3 214 256 240
3 215 239 240
3 215 240 225
3 216 256 224
3 218 222 255
3 218 255 251
3 218 251 220
3 219 221 254
3 219 254 251
3 219 251 223
3 220 251 254
3 220 254 226
3 221 227 257
3 221 257 254
3 222 249 271
3 222 271 255
3 223 251 255
3 223 255 250
3 225 240 256
3 226 254 257
3 226 257 230
3 227 231 259
3 227 259 257
3 228 230 259
3 228 259 258
3 228 258 241
3 229 267 258
3 229 258 231
3 229 242 267
3 230 257 259
3 231 258 259
3 232 260 234
3 233 263 260
3 233 235 263
3 234 260 263
3 236 238 264
3 236 264 275
3 237 276 294
3 237 294 264
3 238 279 262
3 239 269 245
3 241 258 267
3 241 267 247
3 242 270 267
3 242 248 270
3 243 247 270
3 243 270 268
3 243 268 273
3 244 293 268
3 244 268 248
3 244 274 293
3 245 269 265
3 246 266 284
3 246 284 269
3 247 267 270
3 248 268 270
3 249 265 284
3 249 284 271
3 250 255 271
3 250 271 266
3 252 301 312
3 252 312 272
3 253 272 302
3 261 280 300
3 261 300 279
3 262 279 281
3 264 294 275
3 265 269 284
3 266 271 284
3 268 293 273
3 272 312 302
3 273 293 280
3 274 300 293
3 274 281 300
3 275 294 277
3 276 278 297
3 276 297 294
3 277 294 297
3 277 297 287
3 278 288 307
3 278 307 297
3 279 300 281
3 280 293 300
3 282 285 306
3 282 306 305
3 282 305 289
3 283 290 308
3 283 308 305
3 283 305 286
3 285 287 307
3 285 307 306
3 286 305 306
3 286 306 288
3 287 297 307
3 288 306 307
3 289 305 308
3 289 308 303
3 290 304 313
3 290 313 308
3 291 298 311
3 291 311 309
3 291 309 295
3 292 296 310
3 292 310 309
3 292 309 299
3 295 309 310
3 295 310 301
3 296 302 312
3 296 312 310
3 298 303 313
3 298 313 311
3 299 309 311
3 299 311 304
3 301 310 312
3 303 308 313
3 304 311 313
