ply
format ascii 1.0
element vertex 400
property float x
property float y
property float z
element face 800
property list uchar int vertex_index
end_header
1.500000 0.000000 0.000000
1.426580 0.000000 0.463526
1.213530 0.000000 0.881678
0.881678 0.000000 1.213530
0.463525 0.000000 1.426580
-0.000000 0.000000 1.500000
-0.463526 0.000000 1.426580
-0.881678 0.000000 1.213530
-1.213530 0.000000 0.881678
-1.426580 0.000000 0.463526
-1.500000 0.000000 -0.000000
-1.426580 0.000000 -0.463525
-1.213530 0.000000 -0.881678
-0.881678 0.000000 -1.213530
-0.463526 0.000000 -1.426580
0.000000 0.000000 -1.500000
0.463526 0.000000 -1.426580
0.881678 0.000000 -1.213530
1.213530 0.000000 -0.881678
1.426580 0.000000 -0.463525
1.475530 0.154509 0.000000
1.403310 0.154509 0.455963
1.193730 0.154509 0.867294
0.867294 0.154509 1.193730
0.455963 0.154509 1.403310
-0.000000 0.154509 1.475530
-0.455963 0.154509 1.403310
-0.867294 0.154509 1.193730
-1.193730 0.154509 0.867294
-1.403310 0.154509 0.455963
-1.475530 0.154509 -0.000000
-1.403310 0.154509 -0.455963
-1.193730 0.154509 -0.867294
-0.867294 0.154509 -1.193730
-0.455963 0.154509 -1.403310
0.000000 0.154509 -1.475530
0.455963 0.154509 -1.403310
0.867294 0.154509 -1.193730
1.193730 0.154509 -0.867294
1.403310 0.154509 -0.455963
1.404510 0.293893 0.000000
1.335770 0.293893 0.434017
1.136270 0.293893 0.825549
0.825549 0.293893 1.136270
0.434017 0.293893 1.335770
-0.000000 0.293893 1.404510
-0.434017 0.293893 1.335770
-0.825549 0.293893 1.136270
-1.136270 0.293893 0.825549
-1.335770 0.293893 0.434017
-1.404510 0.293893 -0.000000
-1.335770 0.293893 -0.434017
-1.136270 0.293893 -0.825550
-0.825550 0.293893 -1.136270
-0.434017 0.293893 -1.335770
0.000000 0.293893 -1.404510
0.434017 0.293893 -1.335770
0.825550 0.293893 -1.136270
1.136270 0.293893 -0.825549
1.335770 0.293893 -0.434017
1.293890 0.404509 0.000000
1.230570 0.404509 0.399835
1.046780 0.404509 0.760531
0.760531 0.404509 1.046780
0.399835 0.404509 1.230570
-0.000000 0.404509 1.293890
-0.399835 0.404509 1.230560
-0.760531 0.404509 1.046780
-1.046780 0.404509 0.760531
-1.230560 0.404509 0.399835
-1.293890 0.404509 -0.000000
-1.230570 0.404509 -0.399835
-1.046780 0.404509 -0.760531
-0.760531 0.404509 -1.046780
-0.399835 0.404509 -1.230560
0.000000 0.404509 -1.293890
0.399835 0.404509 -1.230560
0.760531 0.404509 -1.046780
1.046780 0.404509 -0.760531
1.230570 0.404509 -0.399835
1.154510 0.475528 0.000000
1.098000 0.475528 0.356763
0.934017 0.475528 0.678603
0.678603 0.475528 0.934017
0.356763 0.475528 1.098000
-0.000000 0.475528 1.154510
-0.356763 0.475528 1.098000
-0.678603 0.475528 0.934017
-0.934017 0.475528 0.678603
-1.098000 0.475528 0.356763
-1.154510 0.475528 -0.000000
-1.098000 0.475528 -0.356763
-0.934017 0.475528 -0.678603
-0.678603 0.475528 -0.934017
-0.356763 0.475528 -1.098000
0.000000 0.475528 -1.154510
0.356763 0.475528 -1.098000
0.678603 0.475528 -0.934017
0.934017 0.475528 -0.678603
1.098000 0.475528 -0.356763
1.000000 0.500000 0.000000
0.951057 0.500000 0.309017
0.809017 0.500000 0.587785
0.587785 0.500000 0.809017
0.309017 0.500000 0.951057
-0.000000 0.500000 1.000000
-0.309017 0.500000 0.951056
-0.587785 0.500000 0.809017
-0.809017 0.500000 0.587785
-0.951056 0.500000 0.309017
-1.000000 0.500000 -0.000000
-0.951057 0.500000 -0.309017
-0.809017 0.500000 -0.587785
-0.587785 0.500000 -0.809017
-0.309017 0.500000 -0.951056
0.000000 0.500000 -1.000000
0.309017 0.500000 -0.951056
0.587785 0.500000 -0.809017
0.809017 0.500000 -0.587785
0.951057 0.500000 -0.309017
0.845491 0.475528 0.000000
0.804110 0.475528 0.261271
0.684017 0.475528 0.496967
0.496967 0.475528 0.684017
0.261271 0.475528 0.804110
-0.000000 0.475528 0.845491
-0.261271 0.475528 0.804110
-0.496967 0.475528 0.684017
-0.684017 0.475528 0.496967
-0.804110 0.475528 0.261271
-0.845491 0.475528 -0.000000
-0.804110 0.475528 -0.261271
-0.684017 0.475528 -0.496968
-0.496968 0.475528 -0.684017
-0.261271 0.475528 -0.804110
0.000000 0.475528 -0.845491
0.261271 0.475528 -0.804110
0.496968 0.475528 -0.684017
0.684017 0.475528 -0.496967
0.804110 0.475528 -0.261271
0.706107 0.404509 0.000000
0.671548 0.404509 0.218199
0.571253 0.404509 0.415040
0.415040 0.404509 0.571253
0.218199 0.404509 0.671548
-0.000000 0.404509 0.706107
-0.218199 0.404509 0.671548
-0.415039 0.404509 0.571253
-0.571253 0.404509 0.415039
-0.671548 0.404509 0.218199
-0.706107 0.404509 -0.000000
-0.671548 0.404509 -0.218199
-0.571253 0.404509 -0.415040
-0.415040 0.404509 -0.571253
-0.218199 0.404509 -0.671548
0.000000 0.404509 -0.706107
0.218199 0.404509 -0.671548
0.415040 0.404509 -0.571253
0.571253 0.404509 -0.415040
0.671548 0.404509 -0.218199
0.595491 0.293893 0.000000
0.566346 0.293893 0.184017
0.481763 0.293893 0.350021
0.350021 0.293893 0.481763
0.184017 0.293893 0.566346
-0.000000 0.293893 0.595491
-0.184017 0.293893 0.566346
-0.350021 0.293893 0.481763
-0.481763 0.293893 0.350021
-0.566346 0.293893 0.184017
-0.595491 0.293893 -0.000000
-0.566346 0.293893 -0.184017
-0.481763 0.293893 -0.350021
-0.350021 0.293893 -0.481763
-0.184017 0.293893 -0.566346
0.000000 0.293893 -0.595491
0.184017 0.293893 -0.566346
0.350021 0.293893 -0.481763
0.481763 0.293893 -0.350021
0.566346 0.293893 -0.184017
0.524472 0.154509 0.000000
0.498802 0.154509 0.162071
0.424307 0.154509 0.308277
0.308277 0.154509 0.424307
0.162071 0.154509 0.498802
-0.000000 0.154509 0.524472
-0.162071 0.154509 0.498802
-0.308277 0.154509 0.424307
-0.424307 0.154509 0.308277
-0.498802 0.154509 0.162071
-0.524472 0.154509 -0.000000
-0.498802 0.154509 -0.162071
-0.424307 0.154509 -0.308277
-0.308277 0.154509 -0.424306
-0.162071 0.154509 -0.498802
0.000000 0.154509 -0.524472
0.162071 0.154509 -0.498802
0.308277 0.154509 -0.424306
0.424307 0.154509 -0.308277
0.498802 0.154509 -0.162071
0.500000 -0.000000 0.000000
0.475528 -0.000000 0.154509
0.404509 -0.000000 0.293893
0.293893 -0.000000 0.404509
0.154508 -0.000000 0.475528
-0.000000 -0.000000 0.500000
-0.154509 -0.000000 0.475528
-0.293893 -0.000000 0.404509
-0.404509 -0.000000 0.293893
-0.475528 -0.000000 0.154509
-0.500000 -0.000000 -0.000000
-0.475528 -0.000000 -0.154508
-0.404508 -0.000000 -0.293893
-0.293893 -0.000000 -0.404508
-0.154509 -0.000000 -0.475528
0.000000 -0.000000 -0.500000
0.154509 -0.000000 -0.475528
0.293893 -0.000000 -0.404508
0.404508 -0.000000 -0.293893
0.475528 -0.000000 -0.154508
0.524472 -0.154508 0.000000
0.498802 -0.154508 0.162071
0.424307 -0.154508 0.308277
0.308277 -0.154508 0.424307
0.162071 -0.154508 0.498802
-0.000000 -0.154508 0.524472
-0.162071 -0.154508 0.498802
-0.308277 -0.154508 0.424307
-0.424307 -0.154508 0.308277
-0.498802 -0.154508 0.162071
-0.524472 -0.154508 -0.000000
-0.498802 -0.154508 -0.162071
-0.424307 -0.154508 -0.308277
-0.308277 -0.154508 -0.424306
-0.162071 -0.154508 -0.498802
0.000000 -0.154508 -0.524472
0.162071 -0.154508 -0.498802
0.308277 -0.154508 -0.424306
0.424307 -0.154508 -0.308277
0.498802 -0.154508 -0.162071
0.595492 -0.293893 0.000000
0.566346 -0.293893 0.184017
0.481763 -0.293893 0.350021
0.350021 -0.293893 0.481763
0.184017 -0.293893 0.566346
-0.000000 -0.293893 0.595492
-0.184017 -0.293893 0.566346
-0.350021 -0.293893 0.481763
-0.481763 -0.293893 0.350021
-0.566346 -0.293893 0.184017
-0.595492 -0.293893 -0.000000
-0.566346 -0.293893 -0.184017
-0.481763 -0.293893 -0.350021
-0.350021 -0.293893 -0.481763
-0.184017 -0.293893 -0.566346
0.000000 -0.293893 -0.595492
0.184017 -0.293893 -0.566346
0.350021 -0.293893 -0.481763
0.481763 -0.293893 -0.350021
0.566346 -0.293893 -0.184017
0.706107 -0.404508 0.000000
0.671548 -0.404508 0.218199
0.571253 -0.404508 0.415039
0.415039 -0.404508 0.571253
0.218199 -0.404508 0.671548
-0.000000 -0.404508 0.706107
-0.218199 -0.404508 0.671548
-0.415039 -0.404508 0.571253
-0.571253 -0.404508 0.415039
-0.671548 -0.404508 0.218199
-0.706107 -0.404508 -0.000000
-0.671548 -0.404508 -0.218199
-0.571253 -0.404508 -0.415040
-0.415040 -0.404508 -0.571253
-0.218199 -0.404508 -0.671548
0.000000 -0.404508 -0.706107
0.218199 -0.404508 -0.671548
0.415040 -0.404508 -0.571253
0.571253 -0.404508 -0.415039
0.671548 -0.404508 -0.218199
0.845491 -0.475528 0.000000
0.804110 -0.475528 0.261271
0.684017 -0.475528 0.496967
0.496967 -0.475528 0.684017
0.261271 -0.475528 0.804110
-0.000000 -0.475528 0.845491
-0.261271 -0.475528 0.804110
-0.496967 -0.475528 0.684017
-0.684017 -0.475528 0.496967
-0.804110 -0.475528 0.261271
-0.845491 -0.475528 -0.000000
-0.804110 -0.475528 -0.261271
-0.684017 -0.475528 -0.496968
-0.496968 -0.475528 -0.684017
-0.261271 -0.475528 -0.804110
0.000000 -0.475528 -0.845491
0.261271 -0.475528 -0.804110
0.496968 -0.475528 -0.684017
0.684017 -0.475528 -0.496967
0.804110 -0.475528 -0.261271
1.000000 -0.500000 0.000000
0.951057 -0.500000 0.309017
0.809017 -0.500000 0.587785
0.587785 -0.500000 0.809017
0.309017 -0.500000 0.951057
-0.000000 -0.500000 1.000000
-0.309017 -0.500000 0.951056
-0.587785 -0.500000 0.809017
-0.809017 -0.500000 0.587785
-0.951056 -0.500000 0.309017
-1.000000 -0.500000 -0.000000
-0.951057 -0.500000 -0.309017
-0.809017 -0.500000 -0.587785
-0.587785 -0.500000 -0.809017
-0.309017 -0.500000 -0.951056
0.000000 -0.500000 -1.000000
0.309017 -0.500000 -0.951056
0.587785 -0.500000 -0.809017
0.809017 -0.500000 -0.587785
0.951057 -0.500000 -0.309017
1.154510 -0.475528 0.000000
1.098000 -0.475528 0.356763
0.934017 -0.475528 0.678603
0.678603 -0.475528 0.934017
0.356763 -0.475528 1.098000
-0.000000 -0.475528 1.154510
-0.356763 -0.475528 1.098000
-0.678603 -0.475528 0.934017
-0.934017 -0.475528 0.678603
-1.098000 -0.475528 0.356763
-1.154510 -0.475528 -0.000000
-1.098000 -0.475528 -0.356763
-0.934017 -0.475528 -0.678603
-0.678603 -0.475528 -0.934017
-0.356763 -0.475528 -1.098000
0.000000 -0.475528 -1.154510
0.356763 -0.475528 -1.098000
0.678603 -0.475528 -0.934017
0.934017 -0.475528 -0.678603
1.098000 -0.475528 -0.356763
1.293890 -0.404508 0.000000
1.230570 -0.404508 0.399835
1.046780 -0.404508 0.760531
0.760531 -0.404508 1.046780
0.399835 -0.404508 1.230570
-0.000000 -0.404508 1.293890
-0.399835 -0.404508 1.230570
-0.760531 -0.404508 1.046780
-1.046780 -0.404508 0.760531
-1.230570 -0.404508 0.399835
-1.293890 -0.404508 -0.000000
-1.230570 -0.404508 -0.399835
-1.046780 -0.404508 -0.760531
-0.760531 -0.404508 -1.046780
-0.399835 -0.404508 -1.230570
0.000000 -0.404508 -1.293890
0.399835 -0.404508 -1.230570
0.760531 -0.404508 -1.046780
1.046780 -0.404508 -0.760531
1.230570 -0.404508 -0.399835
1.404510 -0.293893 0.000000
1.335770 -0.293893 0.434017
1.136270 -0.293893 0.825549
0.825549 -0.293893 1.136270
0.434017 -0.293893 1.335770
-0.000000 -0.293893 1.404510
-0.434017 -0.293893 1.335770
-0.825549 -0.293893 1.136270
-1.136270 -0.293893 0.825549
-1.335770 -0.293893 0.434017
-1.404510 -0.293893 -0.000000
-1.335770 -0.293893 -0.434017
-1.136270 -0.293893 -0.825550
-0.825550 -0.293893 -1.136270
-0.434017 -0.293893 -1.335770
0.000000 -0.293893 -1.404510
0.434017 -0.293893 -1.335770
0.825550 -0.293893 -1.136270
1.136270 -0.293893 -0.825549
1.335770 -0.293893 -0.434017
1.475530 -0.154508 0.000000
1.403310 -0.154508 0.455963
1.193730 -0.154508 0.867294
0.867294 -0.154508 1.193730
0.455963 -0.154508 1.403310
-0.000000 -0.154508 1.475530
-0.455963 -0.154508 1.403310
-0.867294 -0.154508 1.193730
-1.193730 -0.154508 0.867294
-1.403310 -0.154508 0.455963
-1.475530 -0.154508 -0.000000
-1.403310 -0.154508 -0.455963
-1.193730 -0.154508 -0.867294
-0.867294 -0.154508 -1.193730
-0.455963 -0.154508 -1.403310
0.000000 -0.154508 -1.475530
0.455963 -0.154508 -1.403310
0.867294 -0.154508 -1.193730
1.193730 -0.154508 -0.867294
1.403310 -0.154508 -0.455963
3 0 1 21
3 0 21 20
3 1 2 22
3 1 22 21
3 2 3 23
3 2 23 22
3 3 4 24
3 3 24 23
3 4 5 25
3 4 25 24
3 5 6 26
3 5 26 25
3 6 7 27
3 6 27 26
3 7 8 28
3 7 28 27
3 8 9 29
3 8 29 28
3 9 10 30
3 9 30 29
3 10 11 31
3 10 31 30
3 11 12 32
3 11 32 31
3 12 13 33
3 12 33 32
3 13 14 34
3 13 34 33
3 14 15 35
3 14 35 34
3 15 16 36
3 15 36 35
3 16 17 37
3 16 37 36
3 17 18 38
3 17 38 37
3 18 19 39
3 18 39 38
3 19 0 20
3 19 20 39
3 20 21 41
3 20 41 40
3 21 22 42
3 21 42 41
3 22 23 43
3 22 43 42
3 23 24 44
3 23 44 43
3 24 25 45
3 24 45 44
3 25 26 46
3 25 46 45
3 26 27 47
3 26 47 46
3 27 28 48
3 27 48 47
3 28 29 49
3 28 49 48
3 29 30 50
3 29 50 49
3 30 31 51
3 30 51 50
3 31 32 52
3 31 52 51
3 32 33 53
3 32 53 52
3 33 34 54
3 33 54 53
3 34 35 55
3 34 55 54
3 35 36 56
3 35 56 55
3 36 37 57
3 36 57 56
3 37 38 58
3 37 58 57
3 38 39 59
3 38 59 58
3 39 20 40
3 39 40 59
3 40 41 61
3 40 61 60
3 41 42 62
3 41 62 61
3 42 43 63
3 42 63 62
3 43 44 64
3 43 64 63
3 44 45 65
3 44 65 64
3 45 46 66
3 45 66 65
3 46 47 67
3 46 67 66
3 47 48 68
3 47 68 67
3 48 49 69
3 48 69 68
3 49 50 70
3 49 70 69
3 50 51 71
3 50 71 70
3 51 52 72
3 51 72 71
3 52 53 73
3 52 73 72
3 53 54 74
3 53 74 73
3 54 55 75
3 54 75 74
3 55 56 76
3 55 76 75
3 56 57 77
3 56 77 76
3 57 58 78
3 57 78 77
3 58 59 79
3 58 79 78
3 59 40 60
3 59 60 79
3 60 61 81
3 60 81 80
3 61 62 82
3 61 82 81
3 62 63 83
3 62 83 82
3 63 64 84
3 63 84 83
3 64 65 85
3 64 85 84
3 65 66 86
3 65 86 85
3 66 67 87
3 66 87 86
3 67 68 88
3 67 88 87
3 68 69 89
3 68 89 88
3 69 70 90
3 69 90 89
3 70 71 91
3 70 91 90
3 71 72 92
3 71 92 91
3 72 73 93
3 72 93 92
3 73 74 94
3 73 94 93
3 74 75 95
3 74 95 94
3 75 76 96
3 75 96 95
3 76 77 97
3 76 97 96
3 77 78 98
3 77 98 97
3 78 79 99
3 78 99 98
3 79 60 80
3 79 80 99
3 80 81 101
3 80 101 100
3 81 82 102
3 81 102 101
3 82 83 103
3 82 103 102
3 83 84 104
3 83 104 103
3 84 85 105
3 84 105 104
3 85 86 106
3 85 106 105
3 86 87 107
3 86 107 106
3 87 88 108
3 87 108 107
3 88 89 109
3 88 109 108
3 89 90 110
3 89 110 109
3 90 91 111
3 90 111 110
3 91 92 112
3 91 112 111
3 92 93 113
3 92 113 112
3 93 94 114
3 93 114 113
3 94 95 115
3 94 115 114
3 95 96 116
3 95 116 115
3 96 97 117
3 96 117 116
3 97 98 118
3 97 118 117
3 98 99 119
3 98 119 118
3 99 80 100
3 99 100 119
3 100 101 121
3 100 121 120
3 101 102 122
3 101 122 121
3 102 103 123
3 102 123 122
3 103 104 124
3 103 124 123
3 104 105 125
3 104 125 124
3 105 106 126
3 105 126 125
3 106 107 127
3 106 127 126
3 107 108 128
3 107 128 127
3 108 109 129
3 108 129 128
3 109 110 130
3 109 130 129
3 110 111 131
3 110 131 130
3 111 112 132
3 111 132 131
3 112 113 133
3 112 133 132
3 113 114 134
3 113 134 133
3 114 115 135
3 114 135 134
3 115 116 136
3 115 136 135
3 116 117 137
3 116 137 136
3 117 118 138
3 117 138 137
3 118 119 139
3 118 139 138
3 119 100 120
3 119 120 139
3 120 121 141
3 120 141 140
3 121 122 142
3 121 142 141
3 122 123 143
3 122 143 142
3 123 124 144
3 123 144 143
3 124 125 145
3 124 145 144
3 125 126 146
3 125 146 145
3 126 127 147
3 126 147 146
3 127 128 148
3 127 148 147
3 128 129 149
3 128 149 148
3 129 130 150
3 129 150 149
3 130 131 151
3 130 151 150
3 131 132 152
3 131 152 151
3 132 133 153
3 132 153 152
3 133 134 154
3 133 154 153
3 134 135 155
3 134 155 154
3 135 136 156
3 135 156 155
3 136 137 157
3 136 157 156
3 137 138 158
3 137 158 157
3 138 139 159
3 138 159 158
3 139 120 140
3 139 140 159
3 140 141 161
3 140 161 160
3 141 142 162
3 141 162 161
3 142 143 163
3 142 163 162
3 143 144 164
3 143 164 163
3 144 145 165
3 144 165 164
3 145 146 166
3 145 166 165
3 146 147 167
3 146 167 166
3 147 148 168
3 147 168 167
3 148 149 169
3 148 169 168
3 149 150 170
3 149 170 169
3 150 151 171
3 150 171 170
3 151 152 172
3 151 172 171
3 152 153 173
3 152 173 172
3 153 154 174
3 153 174 173
3 154 155 175
3 154 175 174
3 155 156 176
3 155 176 175
3 156 157 177
3 156 177 176
3 157 158 178
3 157 178 177
3 158 159 179
3 158 179 178
3 159 140 160
3 159 160 179
3 160 161 181
3 160 181 180
3 161 162 182
3 161 182 181
3 162 163 183
3 162 183 182
3 163 164 184
3 163 184 183
3 164 165 185
3 164 185 184
3 165 166 186
3 165 186 185
3 166 167 187
3 166 187 186
3 167 168 188
3 167 188 187
3 168 169 189
3 168 189 188
3 169 170 190
3 169 190 189
3 170 171 191
3 170 191 190
3 171 172 192
3 171 192 191
3 172 173 193
3 172 193 192
3 173 174 194
3 173 194 193
3 174 175 195
3 174 195 194
3 175 176 196
3 175 196 195
3 176 177 197
3 176 197 196
3 177 178 198
3 177 198 197
3 178 179 199
3 178 199 198
3 179 160 180
3 179 180 199
3 180 181 201
3 180 201 200
3 181 182 202
3 181 202 201
3 182 183 203
3 182 203 202
3 183 184 204
3 183 204 203
3 184 185 205
3 184 205 204
3 185 186 206
3 185 206 205
3 186 187 207
3 186 207 206
3 187 188 208
3 187 208 207
3 188 189 209
3 188 209 208
3 189 190 210
3 189 210 209
3 190 191 211
3 190 211 210
3 191 192 212
3 191 212 211
3 192 193 213
3 192 213 212
3 193 194 214
3 193 214 213
3 194 195 215
3 194 215 214
3 195 196 216
3 195 216 215
3 196 197 217
3 196 217 216
3 197 198 218
3 197 218 217
3 198 199 219
3 198 219 218
3 199 180 200
3 199 200 219
3 200 201 221
3 200 221 220
3 201 202 222
3 201 222 221
3 202 203 223
3 202 223 222
3 203 204 224
3 203 224 223
3 204 205 225
3 204 225 224
3 205 206 226
3 205 226 225
3 206 207 227
3 206 227 226
3 207 208 228
3 207 228 227
3 208 209 229
3 208 229 228
3 209 210 230
3 209 230 229
3 210 211 231
3 210 231 230
3 211 212 232
3 211 232 231
3 212 213 233
3 212 233 232
3 213 214 234
3 213 234 233
3 214 215 235
3 214 235 234
3 215 216 236
3 215 236 235
3 216 217 237
3 216 237 236
3 217 218 238
3 217 238 237
3 218 219 239
3 218 239 238
3 219 200 220
3 219 220 239
3 220 221 241
3 220 241 240
3 221 222 242
3 221 242 241
3 222 223 243
3 222 243 242
3 223 224 244
3 223 244 243
3 224 225 245
3 224 245 244
3 225 226 246
3 225 246 245
3 226 227 247
3 226 247 246
3 227 228 248
3 227 248 247
3 228 229 249
3 228 249 248
3 229 230 250
3 229 250 249
3 230 231 251
3 230 251 250
3 231 232 252
3 231 252 251
3 232 233 253
3 232 253 252
3 233 234 254
3 233 254 253
3 234 235 255
3 234 255 254
3 235 236 256
3 235 256 255
3 236 237 257
3 236 257 256
3 237 238 258
3 237 258 257
3 238 239 259
3 238 259 258
3 239 220 240
3 239 240 259
3 240 241 261
3 240 261 260
3 241 242 262
3 241 262 261
3 242 243 263
3 242 263 262
3 243 244 264
3 243 264 263
3 244 245 265
3 244 265 264
3 245 246 266
3 245 266 265
3 246 247 267
3 246 267 266
3 247 248 268
3 247 268 267
3 248 249 269
3 248 269 268
3 249 250 270
3 249 270 269
3 250 251 271
3 250 271 270
3 251 252 272
3 251 272 271
3 252 253 273
3 252 273 272
3 253 254 274
3 253 274 273
3 254 255 275
3 254 275 274
3 255 256 276
3 255 276 275
3 256 257 277
3 256 277 276
3 257 258 278
3 257 278 277
3 258 259 279
3 258 279 278
3 259 240 260
3 259 260 279
3 260 261 281
3 260 281 280
3 261 262 282
3 261 282 281
3 262 263 283
3 262 283 282
3 263 264 284
3 263 284 283
3 264 265 285
3 264 285 284
3 265 266 286
3 265 286 285
3 266 267 287
3 266 287 286
3 267 268 288
3 267 288 287
3 268 269 289
3 268 289 288
3 269 270 290
3 269 290 289
3 270 271 291
3 270 291 290
3 271 272 292
3 271 292 291
3 272 273 293
3 272 293 292
3 273 274 294
3 273 294 293
3 274 275 295
3 274 295 294
3 275 276 296
3 275 296 295
3 276 277 297
3 276 297 296
3 277 278 298
3 277 298 297
3 278 279 299
3 278 299 298
3 279 260 280
3 279 280 299
3 280 281 301
3 280 301 300
3 281 282 302
3 281 302 301
3 282 283 303
3 282 303 302
3 283 284 304
3 283 304 303
3 284 285 305
3 284 305 304
3 285 286 306
3 285 306 305
3 286 287 307
3 286 307 306
3 287 288 308
3 287 308 307
3 288 289 309
3 288 309 308
3 289 290 310
3 289 310 309
3 290 291 311
3 290 311 310
3 291 292 312
3 291 312 311
3 292 293 313
3 292 313 312
3 293 294 314
3 293 314 313
3 294 295 315
3 294 315 314
3 295 296 316
3 295 316 315
3 296 297 317
3 296 317 316
3 297 298 318
3 297 318 317
3 298 299 319
3 298 319 318
3 299 280 300
3 299 300 319
3 300 301 321
3 300 321 320
3 301 302 322
3 301 322 321
3 302 303 323
3 302 323 322
3 303 304 324
3 303 324 323
3 304 305 325
3 304 325 324
3 305 306 326
3 305 326 325
3 306 307 327
3 306 327 326
3 307 308 328
3 307 328 327
3 308 309 329
3 308 329 328
3 309 310 330
3 309 330 329
3 310 311 331
3 310 331 330
3 311 312 332
3 311 332 331
3 312 313 333
3 312 333 332
3 313 314 334
3 313 334 333
3 314 315 335
3 314 335 334
3 315 316 336
3 315 336 335
3 316 317 337
3 316 337 336
3 317 318 338
3 317 338 337
3 318 319 339
3 318 339 338
3 319 300 320
3 319 320 339
3 320 321 341
3 320 341 340
3 321 322 342
3 321 342 341
3 322 323 343
3 322 343 342
3 323 324 344
3 323 344 343
3 324 325 345
3 324 345 344
3 325 326 346
3 325 346 345
3 326 327 347
3 326 347 346
3 327 328 348
3 327 348 347
3 328 329 349
3 328 349 348
3 329 330 350
3 329 350 349
3 330 331 351
3 330 351 350
3 331 332 352
3 331 352 351
3 332 333 353
3 332 353 352
3 333 334 354
3 333 354 353
3 334 335 355
3 334 355 354
3 335 336 356
3 335 356 355
3 336 337 357
3 336 357 356
3 337 338 358
3 337 358 357
3 338 339 359
3 338 359 358
3 339 320 340
3 339 340 359
3 340 341 361
3 340 361 360
3 341 342 362
3 341 362 361
3 342 343 363
3 342 363 362
3 343 344 364
3 343 364 363
3 344 345 365
3 344 365 364
3 345 346 366
3 345 366 365
3 346 347 367
3 346 367 366
3 347 348 368
3 347 368 367
3 348 349 369
3 348 369 368
3 349 350 370
3 349 370 369
3 350 351 371
3 350 371 370
3 351 352 372
3 351 372 371
3 352 353 373
3 352 373 372
3 353 354 374
3 353 374 373
3 354 355 375
3 354 375 374
3 355 356 376
3 355 376 375
3 356 357 377
3 356 377 376
3 357 358 378
3 357 378 377
3 358 359 379
3 358 379 378
3 359 340 360
3 359 360 379
3 360 361 381
3 360 381 380
3 361 362 382
3 361 382 381
3 362 363 383
3 362 383 382
3 363 364 384
3 363 384 383
3 364 365 385
3 364 385 384
3 365 366 386
3 365 386 385
3 366 367 387
3 366 387 386
3 367 368 388
3 367 388 387
3 368 369 389
3 368 389 388
3 369 370 390
3 369 390 389
3 370 371 391
3 370 391 390
3 371 372 392
3 371 392 391
3 372 373 393
3 372 393 392
3 373 374 394
3 373 394 393
3 374 375 395
3 374 395 394
3 375 376 396
3 375 396 395
3 376 377 397
3 376 397 396
3 377 378 398
3 377 398 397
3 378 379 399
3 378 399 398
3 379 360 380
3 379 380 399
3 380 381 1
3 380 1 0
3 381 382 2
3 381 2 1
3 382 383 3
3 382 3 2
3 383 384 4
3 383 4 3
3 384 385 5
3 384 5 4
3 385 386 6
3 385 6 5
3 386 387 7
3 386 7 6
3 387 388 8
3 387 8 7
3 388 389 9
3 388 9 8
3 389 390 10
3 389 10 9
3 390 391 11
3 390 11 10
3 391 392 12
3 391 12 11
3 392 393 13
3 392 13 12
3 393 394 14
3 393 14 13
3 394 395 15
3 394 15 14
3 395 396 16
3 395 16 15
3 396 397 17
3 396 17 16
3 397 398 18
3 397 18 17
3 398 399 19
3 398 19 18
3 399 380 0
3 399 0 19
